HIERARCHY
ROOT root
{
	OFFSET	0	13.1	24.9
	CHANNELS 6  Xposition Yposition Zposition Xrotation Yrotation Zrotation
	JOINT spine_1
	{
		OFFSET	0	9.99999	0
		CHANNELS 3  Xrotation Yrotation Zrotation
		JOINT spine_2
		{
			OFFSET	0	112	-10
			CHANNELS 3  Xrotation Yrotation Zrotation
			JOINT spine_3
			{
				OFFSET	0	206.5	19.3
				CHANNELS 3  Xrotation Yrotation Zrotation
				JOINT spine_4
				{
					OFFSET	0	110.4	14.6
					CHANNELS 3  Xrotation Yrotation Zrotation
					JOINT neck_1
					{
						OFFSET	0	71.8	-50.3
						CHANNELS 3  Xrotation Yrotation Zrotation
						JOINT neck_2
						{
							OFFSET	0	86.2	-25.8
							CHANNELS 3  Xrotation Yrotation Zrotation
							JOINT head_ee
							{
								OFFSET	0	179.8	-8.7
								CHANNELS 3  Xrotation Yrotation Zrotation
								End Site
								{
									OFFSET	1	0	0
								}
							}
						}
					}
					JOINT left_clavicle
					{
						OFFSET	-43.2	22.4	-70.8
						CHANNELS 3  Xrotation Yrotation Zrotation
						JOINT left_shoulder
						{
							OFFSET	-93.9	-5.79999	48.7
							CHANNELS 3  Xrotation Yrotation Zrotation
							JOINT left_elbow
							{
								OFFSET	-291.4	-30.8	15.2
								CHANNELS 3  Xrotation Yrotation Zrotation
								JOINT left_lowarm_twist
								{
									OFFSET	-110.7	-3.89999	13.6
									CHANNELS 3  Xrotation Yrotation Zrotation
									JOINT left_hand
									{
										OFFSET	-110.7	-3.89999	13.6
										CHANNELS 3  Xrotation Yrotation Zrotation
										JOINT left_ee
										{
											OFFSET	-80.8	-5.10001	12.1
											CHANNELS 3  Xrotation Yrotation Zrotation
											End Site
											{
												OFFSET	1	0	0
											}
										}
									}
								}
							}
						}
					}
					JOINT right_clavicle
					{
						OFFSET	43.2	22.4	-70.8
						CHANNELS 3  Xrotation Yrotation Zrotation
						JOINT right_shoulder
						{
							OFFSET	93.9	-5.79999	48.7
							CHANNELS 3  Xrotation Yrotation Zrotation
							JOINT right_elbow
							{
								OFFSET	291.4	-30.8	15.2
								CHANNELS 3  Xrotation Yrotation Zrotation
								JOINT right_lowarm_twist
								{
									OFFSET	110.7	-3.89999	13.6
									CHANNELS 3  Xrotation Yrotation Zrotation
									JOINT right_hand
									{
										OFFSET	110.7	-3.89999	13.6
										CHANNELS 3  Xrotation Yrotation Zrotation
										JOINT right_ee
										{
											OFFSET	80.8	-5.10001	12.1
											CHANNELS 3  Xrotation Yrotation Zrotation
											End Site
											{
												OFFSET	1	0	0
											}
										}
									}
								}
							}
						}
					}
				}
			}
		}
	}
	JOINT left_hip
	{
		OFFSET	-82.8	-127.5	0.300001
		CHANNELS 3  Xrotation Yrotation Zrotation
		JOINT left_knee
		{
			OFFSET	-28.2	-396.7	2.2
			CHANNELS 3  Xrotation Yrotation Zrotation
			JOINT left_ankle
			{
				OFFSET	-11.7	-411.3	35.4
				CHANNELS 3  Xrotation Yrotation Zrotation
				JOINT left_toes
				{
					OFFSET	0	-60	-88.6
					CHANNELS 3  Xrotation Yrotation Zrotation
					JOINT left_foot_ee
					{
						OFFSET	-22.5	-16.5	-42.2
						CHANNELS 3  Xrotation Yrotation Zrotation
						End Site
						{
							OFFSET	1	0	0
						}
					}
				}
			}
		}
	}
	JOINT right_hip
	{
		OFFSET	82.8	-127.5	0.300001
		CHANNELS 3  Xrotation Yrotation Zrotation
		JOINT right_knee
		{
			OFFSET	28.2	-396.7	2.2
			CHANNELS 3  Xrotation Yrotation Zrotation
			JOINT right_ankle
			{
				OFFSET	11.7	-411.3	35.4
				CHANNELS 3  Xrotation Yrotation Zrotation
				JOINT right_toes
				{
					OFFSET	0	-60	-88.6
					CHANNELS 3  Xrotation Yrotation Zrotation
					JOINT right_foot_ee
					{
						OFFSET	22.5	-16.5	-42.2
						CHANNELS 3  Xrotation Yrotation Zrotation
						End Site
						{
							OFFSET	1	0	0
						}
					}
				}
			}
		}
	}
}
MOTION
Frames: 5
Frame Time: 0.02
1334.16 682.744 -1545.16 -39.7005 71.2409 46.8479 5.68478 -0.543399 -3.16073 5.69028 -0.341277 -3.18887 5.70344 0.0177854 -3.20701 5.68942 -0.488666 -3.16965 0.778903 -0.184616 3.11909 0.8189 -2.90979 3.36899 -0.0 0.0 -0.0 3.44261 24.333 7.45065 -12.1171 2.28968 67.0319 0.442123 -12.3538 0.0478498 -35.2749 -2.46324 3.70106 5.57668 26.3512 47.8472 -0.0 0.0 -0.0 10.0986 4.33248 -20.018 8.47157 -16.1405 -54.3386 1.67911 39.7497 -0.607033 6.35477 -0.180162 0.791329 7.58606 -13.5087 -73.0605 0.0 0.0 0.0 37.3479 -27.7116 -6.86967 -2.43922 0.0927187 0.362828 2.05971 23.2834 -0.310395 5.90416 -0.0 -0.0 -0.0 0.0 -0.0 6.88656 7.233 -15.0982 -14.0402 -0.319018 -2.12565 42.7854 -19.5262 5.26615 9.53482 -0.0 -0.0 0.0 0.0 0.0 
1305.2 679.824 -1552.18 -37.6443 70.1131 44.8288 6.07568 -0.409778 -3.16965 6.08125 -0.207359 -3.18927 6.08634 0.129756 -3.19337 6.07231 -0.375946 -3.17383 2.57464 0.0494991 3.65851 2.62942 -3.0192 4.06324 -0.0 0.0 -0.0 4.07941 24.4265 8.31679 -10.3856 4.13328 67.0694 0.50997 -14.1779 0.0634205 -33.5575 -2.2935 3.56062 5.53632 26.4498 47.4826 -0.0 0.0 -0.0 9.8956 3.57754 -19.569 5.29555 -16.812 -54.7253 1.61763 38.7032 -0.568157 6.57423 -0.184808 0.818979 7.57409 -14.6174 -73.4643 0.0 0.0 0.0 37.4777 -27.9554 -7.10448 -7.0256 0.224863 1.0541 2.15282 24.6817 -0.326581 8.21232 -0.0 -0.0 -0.0 0.0 -0.0 4.99561 7.46183 -14.7494 -13.0012 -0.313362 -1.96635 42.5068 -18.6157 5.22085 11.2524 -0.0 -0.0 0.0 0.0 0.0 
1282.17 686.647 -1556.69 -36.065 69.1059 43.2457 6.16793 -0.381254 -3.17169 6.17351 -0.178764 -3.18949 6.17686 0.153213 -3.19082 6.16283 -0.35238 -3.17502 1.68054 1.11892 4.90626 1.75854 -2.14813 5.48207 -0.0 0.0 -0.0 4.58265 23.4054 9.03045 -9.15266 6.38318 66.3043 0.54054 -14.9905 0.0711181 -31.2888 -2.0759 3.36746 5.41357 24.9348 46.3044 -0.0 0.0 -0.0 9.78247 -0.38211 -19.1888 2.39029 -14.2638 -55.6243 1.64504 39.1737 -0.585382 7.04564 -0.19443 0.878428 7.50767 -16.2201 -72.6614 0.0 0.0 0.0 37.422 -28.0886 -7.32934 -9.36514 0.270845 1.41014 -1.33509 26.6551 0.206291 8.81942 -0.0 -0.0 -0.0 0.0 -0.0 4.29167 7.19105 -14.7465 -13.6096 -0.317025 -2.05962 41.2946 -18.6215 5.1148 12.3766 -0.0 -0.0 0.0 0.0 0.0 
1265.58 687.809 -1560.48 -33.9122 69.0701 41.2739 6.12608 -0.447402 -3.16317 6.13161 -0.24532 -3.1852 6.13874 0.0885944 -3.19339 6.12475 -0.416596 -3.16737 1.20818 1.77549 5.5552 1.30047 -1.49739 6.22625 -0.0 0.0 -0.0 4.74336 22.7921 9.27281 -9.00729 8.3277 65.8172 0.544355 -15.0915 0.0721083 -29.4462 -1.90493 3.20439 5.38882 24.0786 46.0172 -0.0 0.0 -0.0 9.81049 -1.8246 -19.1706 0.632437 -14.2788 -56.0041 1.60114 38.4172 -0.557878 7.54758 -0.204136 0.941812 7.46959 -17.4576 -72.2816 0.0 0.0 0.0 37.8392 -28.1927 -7.29283 -13.3417 0.315533 2.01853 -4.05039 28.6977 0.636922 8.86119 -0.0 -0.0 -0.0 0.0 -0.0 3.55787 7.29904 -14.4693 -14.1661 -0.319508 -2.14497 40.8855 -18.7284 5.08057 13.3291 -0.0 -0.0 0.0 0.0 0.0 
1247.27 691.443 -1562.56 -32.8913 68.466 40.651 5.98615 -0.486113 -3.15704 5.99165 -0.284341 -3.18154 6.00116 0.0570208 -3.1937 5.98721 -0.447824 -3.1627 1.40534 1.73907 5.73033 1.50496 -1.72577 6.42532 -0.0 0.0 -0.0 4.81813 22.6129 9.38418 -9.25224 9.49296 66.7133 0.548668 -15.2055 0.0732355 -27.8716 -1.76307 3.06076 5.41049 23.3774 46.1465 -0.0 0.0 -0.0 9.55523 -4.50731 -18.4921 -2.10278 -13.9765 -56.5949 1.5218 37.0085 -0.509339 7.69036 -0.206796 0.959856 7.44479 -18.1566 -71.9518 0.0 0.0 0.0 37.9319 -28.2786 -7.38433 -16.524 0.320829 2.5067 -4.65372 27.1081 0.725466 9.28329 -0.0 -0.0 -0.0 0.0 -0.0 3.11842 7.39862 -14.219 -14.4016 -0.320309 -2.18108 40.4538 -18.6173 5.03922 14.0611 -0.0 -0.0 0.0 0.0 0.0 
